<svg xmlns="http://www.w3.org/2000/svg" xmlns:xlink="http://www.w3.org/1999/xlink" width="1640" zoomAndPan="magnify" viewBox="0 0 1230 693.000001" height="924" preserveAspectRatio="xMidYMid meet" version="1.0"><defs><g/></defs><g fill="rgb(0%, 0%, 0%)" fill-opacity="1"><g transform="translate(314.194206, 368.193692)"><g><path d="M 11.625 -60.625 L 11.625 -59.453125 L 6.8125 -59.453125 L 6.8125 10.84375 L 11.625 10.84375 L 11.625 12 L 5.515625 12 L 5.515625 -60.625 Z M 11.625 -60.625 "/></g></g></g><g fill="rgb(0%, 0%, 0%)" fill-opacity="1"><g transform="translate(329.315574, 368.193692)"><g/></g></g><g fill="rgb(0%, 0%, 0%)" fill-opacity="1"><g transform="translate(348.136171, 368.193692)"><g><path d="M 36.484375 0 L 35.171875 0 L 6.8125 -43.296875 L 6.8125 0 L 5.515625 0 L 5.515625 -45.625 L 6.8125 -45.625 L 35.171875 -2.40625 L 35.171875 -45.625 L 36.484375 -45.625 Z M 36.484375 0 "/></g></g></g><g fill="rgb(0%, 0%, 0%)" fill-opacity="1"><g transform="translate(390.125566, 368.193692)"><g><path d="M 21.03125 0.453125 C 17.78125 0.453125 14.859375 -0.269531 12.265625 -1.71875 C 9.671875 -3.164062 7.625 -5.238281 6.125 -7.9375 C 4.632812 -10.644531 3.890625 -13.84375 3.890625 -17.53125 C 3.890625 -21.207031 4.632812 -24.394531 6.125 -27.09375 C 7.625 -29.800781 9.671875 -31.878906 12.265625 -33.328125 C 14.859375 -34.773438 17.78125 -35.5 21.03125 -35.5 C 24.269531 -35.5 27.1875 -34.773438 29.78125 -33.328125 C 32.382812 -31.878906 34.421875 -29.800781 35.890625 -27.09375 C 37.359375 -24.394531 38.09375 -21.207031 38.09375 -17.53125 C 38.09375 -13.84375 37.359375 -10.644531 35.890625 -7.9375 C 34.421875 -5.238281 32.382812 -3.164062 29.78125 -1.71875 C 27.1875 -0.269531 24.269531 0.453125 21.03125 0.453125 Z M 21.03125 -0.71875 C 23.84375 -0.71875 26.4375 -1.332031 28.8125 -2.5625 C 31.195312 -3.789062 33.125 -5.660156 34.59375 -8.171875 C 36.0625 -10.679688 36.796875 -13.800781 36.796875 -17.53125 C 36.796875 -21.25 36.0625 -24.363281 34.59375 -26.875 C 33.125 -29.382812 31.195312 -31.253906 28.8125 -32.484375 C 26.4375 -33.710938 23.84375 -34.328125 21.03125 -34.328125 C 18.21875 -34.328125 15.609375 -33.710938 13.203125 -32.484375 C 10.804688 -31.253906 8.867188 -29.375 7.390625 -26.84375 C 5.921875 -24.3125 5.1875 -21.207031 5.1875 -17.53125 C 5.1875 -13.84375 5.921875 -10.734375 7.390625 -8.203125 C 8.867188 -5.671875 10.804688 -3.789062 13.203125 -2.5625 C 15.609375 -1.332031 18.21875 -0.71875 21.03125 -0.71875 Z M 21.03125 -0.71875 "/></g></g></g><g fill="rgb(0%, 0%, 0%)" fill-opacity="1"><g transform="translate(432.113887, 368.193692)"><g/></g></g><g fill="rgb(0%, 0%, 0%)" fill-opacity="1"><g transform="translate(450.934484, 368.193692)"><g/></g></g><g fill="rgb(0%, 0%, 0%)" fill-opacity="1"><g transform="translate(469.74708, 368.193692)"><g><path d="M 3.890625 -22.78125 C 3.890625 -27.320312 4.796875 -31.351562 6.609375 -34.875 C 8.429688 -38.40625 10.960938 -41.164062 14.203125 -43.15625 C 17.453125 -45.144531 21.113281 -46.140625 25.1875 -46.140625 C 30.507812 -46.140625 34.910156 -44.90625 38.390625 -42.4375 C 41.867188 -39.976562 44.410156 -36.5625 46.015625 -32.1875 L 44.71875 -32.1875 C 43.332031 -36.039062 40.972656 -39.132812 37.640625 -41.46875 C 34.304688 -43.8125 30.15625 -44.984375 25.1875 -44.984375 C 21.46875 -44.984375 18.09375 -44.082031 15.0625 -42.28125 C 12.03125 -40.488281 9.632812 -37.914062 7.875 -34.5625 C 6.125 -31.207031 5.25 -27.28125 5.25 -22.78125 C 5.25 -18.320312 6.125 -14.425781 7.875 -11.09375 C 9.632812 -7.757812 12.039062 -5.195312 15.09375 -3.40625 C 18.144531 -1.613281 21.507812 -0.71875 25.1875 -0.71875 C 30.15625 -0.71875 34.304688 -1.875 37.640625 -4.1875 C 40.972656 -6.5 43.332031 -9.582031 44.71875 -13.4375 L 46.015625 -13.4375 C 44.410156 -9.0625 41.867188 -5.648438 38.390625 -3.203125 C 34.910156 -0.765625 30.507812 0.453125 25.1875 0.453125 C 21.113281 0.453125 17.453125 -0.53125 14.203125 -2.5 C 10.960938 -4.46875 8.429688 -7.210938 6.609375 -10.734375 C 4.796875 -14.265625 3.890625 -18.28125 3.890625 -22.78125 Z M 3.890625 -22.78125 "/></g></g></g><g fill="rgb(0%, 0%, 0%)" fill-opacity="1"><g transform="translate(519.654101, 368.193692)"><g><path d="M 21.03125 0.453125 C 17.78125 0.453125 14.859375 -0.269531 12.265625 -1.71875 C 9.671875 -3.164062 7.625 -5.238281 6.125 -7.9375 C 4.632812 -10.644531 3.890625 -13.84375 3.890625 -17.53125 C 3.890625 -21.207031 4.632812 -24.394531 6.125 -27.09375 C 7.625 -29.800781 9.671875 -31.878906 12.265625 -33.328125 C 14.859375 -34.773438 17.78125 -35.5 21.03125 -35.5 C 24.269531 -35.5 27.1875 -34.773438 29.78125 -33.328125 C 32.382812 -31.878906 34.421875 -29.800781 35.890625 -27.09375 C 37.359375 -24.394531 38.09375 -21.207031 38.09375 -17.53125 C 38.09375 -13.84375 37.359375 -10.644531 35.890625 -7.9375 C 34.421875 -5.238281 32.382812 -3.164062 29.78125 -1.71875 C 27.1875 -0.269531 24.269531 0.453125 21.03125 0.453125 Z M 21.03125 -0.71875 C 23.84375 -0.71875 26.4375 -1.332031 28.8125 -2.5625 C 31.195312 -3.789062 33.125 -5.660156 34.59375 -8.171875 C 36.0625 -10.679688 36.796875 -13.800781 36.796875 -17.53125 C 36.796875 -21.25 36.0625 -24.363281 34.59375 -26.875 C 33.125 -29.382812 31.195312 -31.253906 28.8125 -32.484375 C 26.4375 -33.710938 23.84375 -34.328125 21.03125 -34.328125 C 18.21875 -34.328125 15.609375 -33.710938 13.203125 -32.484375 C 10.804688 -31.253906 8.867188 -29.375 7.390625 -26.84375 C 5.921875 -24.3125 5.1875 -21.207031 5.1875 -17.53125 C 5.1875 -13.84375 5.921875 -10.734375 7.390625 -8.203125 C 8.867188 -5.671875 10.804688 -3.789062 13.203125 -2.5625 C 15.609375 -1.332031 18.21875 -0.71875 21.03125 -0.71875 Z M 21.03125 -0.71875 "/></g></g></g><g fill="rgb(0%, 0%, 0%)" fill-opacity="1"><g transform="translate(561.643496, 368.193692)"><g><path d="M 16.75 -1.953125 L 30.765625 -35.046875 L 32.125 -35.046875 L 17.203125 0 L 16.234375 0 L 1.296875 -35.046875 L 2.71875 -35.046875 Z M 16.75 -1.953125 "/></g></g></g><g fill="rgb(0%, 0%, 0%)" fill-opacity="1"><g transform="translate(595.06627, 368.193692)"><g><path d="M 20.765625 -0.71875 C 24.703125 -0.71875 28.007812 -1.710938 30.6875 -3.703125 C 33.375 -5.691406 35 -8.414062 35.5625 -11.875 L 36.859375 -11.875 C 36.253906 -8.195312 34.535156 -5.222656 31.703125 -2.953125 C 28.867188 -0.679688 25.222656 0.453125 20.765625 0.453125 C 17.523438 0.453125 14.628906 -0.257812 12.078125 -1.6875 C 9.523438 -3.113281 7.519531 -5.1875 6.0625 -7.90625 C 4.613281 -10.632812 3.890625 -13.84375 3.890625 -17.53125 C 3.890625 -21.207031 4.613281 -24.40625 6.0625 -27.125 C 7.519531 -29.851562 9.523438 -31.929688 12.078125 -33.359375 C 14.628906 -34.785156 17.523438 -35.5 20.765625 -35.5 C 24.179688 -35.5 27.101562 -34.773438 29.53125 -33.328125 C 31.957031 -31.878906 33.785156 -30.007812 35.015625 -27.71875 C 36.242188 -25.425781 36.859375 -23.003906 36.859375 -20.453125 C 36.859375 -18.890625 36.835938 -17.71875 36.796875 -16.9375 L 5.1875 -16.9375 C 5.226562 -13.34375 5.972656 -10.332031 7.421875 -7.90625 C 8.878906 -5.488281 10.773438 -3.6875 13.109375 -2.5 C 15.441406 -1.3125 17.992188 -0.71875 20.765625 -0.71875 Z M 20.765625 -34.328125 C 17.992188 -34.328125 15.441406 -33.734375 13.109375 -32.546875 C 10.773438 -31.359375 8.878906 -29.550781 7.421875 -27.125 C 5.972656 -24.707031 5.226562 -21.703125 5.1875 -18.109375 L 35.703125 -18.109375 C 35.910156 -21.703125 35.332031 -24.707031 33.96875 -27.125 C 32.613281 -29.550781 30.753906 -31.359375 28.390625 -32.546875 C 26.035156 -33.734375 23.492188 -34.328125 20.765625 -34.328125 Z M 20.765625 -34.328125 "/></g></g></g><g fill="rgb(0%, 0%, 0%)" fill-opacity="1"><g transform="translate(635.822593, 368.193692)"><g><path d="M 6.8125 -26.546875 C 8.195312 -32.734375 12.804688 -35.828125 20.640625 -35.828125 L 20.640625 -34.40625 L 20.0625 -34.40625 C 16.375 -34.40625 13.242188 -33.332031 10.671875 -31.1875 C 8.097656 -29.039062 6.8125 -25.585938 6.8125 -20.828125 L 6.8125 0 L 5.515625 0 L 5.515625 -35.046875 L 6.8125 -35.046875 Z M 6.8125 -26.546875 "/></g></g></g><g fill="rgb(0%, 0%, 0%)" fill-opacity="1"><g transform="translate(657.758319, 368.193692)"><g/></g></g><g fill="rgb(0%, 0%, 0%)" fill-opacity="1"><g transform="translate(676.578916, 368.193692)"><g><path d="M 6.8125 -45.6875 L 6.8125 0 L 5.515625 0 L 5.515625 -45.6875 Z M 6.8125 -45.6875 "/></g></g></g><g fill="rgb(0%, 0%, 0%)" fill-opacity="1"><g transform="translate(688.909641, 368.193692)"><g><path d="M 46.53125 -35.828125 C 50.425781 -35.828125 53.628906 -34.550781 56.140625 -32 C 58.648438 -29.445312 59.90625 -25.597656 59.90625 -20.453125 L 59.90625 0 L 58.671875 0 L 58.671875 -20.578125 C 58.671875 -25.160156 57.585938 -28.648438 55.421875 -31.046875 C 53.265625 -33.453125 50.300781 -34.65625 46.53125 -34.65625 C 42.59375 -34.65625 39.410156 -33.257812 36.984375 -30.46875 C 34.566406 -27.675781 33.359375 -23.617188 33.359375 -18.296875 L 33.359375 0 L 32.125 0 L 32.125 -20.578125 C 32.125 -25.160156 31.039062 -28.648438 28.875 -31.046875 C 26.71875 -33.453125 23.753906 -34.65625 19.984375 -34.65625 C 16.003906 -34.65625 12.8125 -33.257812 10.40625 -30.46875 C 8.007812 -27.675781 6.8125 -23.617188 6.8125 -18.296875 L 6.8125 0 L 5.515625 0 L 5.515625 -35.046875 L 6.8125 -35.046875 L 6.8125 -25.765625 C 7.675781 -29.140625 9.285156 -31.660156 11.640625 -33.328125 C 14.003906 -34.992188 16.785156 -35.828125 19.984375 -35.828125 C 23.273438 -35.828125 26.097656 -34.90625 28.453125 -33.0625 C 30.816406 -31.226562 32.320312 -28.453125 32.96875 -24.734375 C 33.75 -28.453125 35.359375 -31.226562 37.796875 -33.0625 C 40.242188 -34.90625 43.15625 -35.828125 46.53125 -35.828125 Z M 46.53125 -35.828125 "/></g></g></g><g fill="rgb(0%, 0%, 0%)" fill-opacity="1"><g transform="translate(754.002949, 368.193692)"><g><path d="M 3.890625 -17.53125 C 3.890625 -21.207031 4.601562 -24.394531 6.03125 -27.09375 C 7.457031 -29.800781 9.46875 -31.878906 12.0625 -33.328125 C 14.664062 -34.773438 17.632812 -35.5 20.96875 -35.5 C 24.988281 -35.5 28.394531 -34.445312 31.1875 -32.34375 C 33.976562 -30.25 35.847656 -27.582031 36.796875 -24.34375 L 36.796875 -35.046875 L 38.03125 -35.046875 L 38.03125 0 L 36.796875 0 L 36.796875 -10.703125 C 35.847656 -7.460938 33.976562 -4.789062 31.1875 -2.6875 C 28.394531 -0.59375 24.988281 0.453125 20.96875 0.453125 C 17.632812 0.453125 14.664062 -0.269531 12.0625 -1.71875 C 9.46875 -3.164062 7.457031 -5.238281 6.03125 -7.9375 C 4.601562 -10.644531 3.890625 -13.84375 3.890625 -17.53125 Z M 36.796875 -17.53125 C 36.796875 -20.851562 36.113281 -23.78125 34.75 -26.3125 C 33.394531 -28.84375 31.515625 -30.8125 29.109375 -32.21875 C 26.710938 -33.625 24 -34.328125 20.96875 -34.328125 C 17.757812 -34.328125 14.976562 -33.65625 12.625 -32.3125 C 10.269531 -30.976562 8.441406 -29.046875 7.140625 -26.515625 C 5.835938 -23.984375 5.1875 -20.988281 5.1875 -17.53125 C 5.1875 -14.0625 5.835938 -11.0625 7.140625 -8.53125 C 8.441406 -6 10.269531 -4.0625 12.625 -2.71875 C 14.976562 -1.382812 17.757812 -0.71875 20.96875 -0.71875 C 24 -0.71875 26.710938 -1.421875 29.109375 -2.828125 C 31.515625 -4.234375 33.394531 -6.203125 34.75 -8.734375 C 36.113281 -11.265625 36.796875 -14.195312 36.796875 -17.53125 Z M 36.796875 -17.53125 "/></g></g></g><g fill="rgb(0%, 0%, 0%)" fill-opacity="1"><g transform="translate(797.549904, 368.193692)"><g><path d="M 20.96875 -35.5 C 24.988281 -35.5 28.394531 -34.457031 31.1875 -32.375 C 33.976562 -30.300781 35.847656 -27.664062 36.796875 -24.46875 L 36.796875 -35.046875 L 38.03125 -35.046875 L 38.03125 1.296875 C 38.03125 4.546875 37.316406 7.367188 35.890625 9.765625 C 34.460938 12.171875 32.566406 14 30.203125 15.25 C 27.847656 16.507812 25.285156 17.140625 22.515625 17.140625 C 18.273438 17.140625 14.757812 16.109375 11.96875 14.046875 C 9.175781 11.992188 7.265625 9.21875 6.234375 5.71875 L 7.53125 5.71875 C 8.519531 8.875 10.28125 11.367188 12.8125 13.203125 C 15.34375 15.046875 18.578125 15.96875 22.515625 15.96875 C 25.203125 15.96875 27.625 15.359375 29.78125 14.140625 C 31.945312 12.929688 33.65625 11.222656 34.90625 9.015625 C 36.164062 6.816406 36.796875 4.242188 36.796875 1.296875 L 36.796875 -10.640625 C 35.847656 -7.398438 33.976562 -4.738281 31.1875 -2.65625 C 28.394531 -0.582031 24.988281 0.453125 20.96875 0.453125 C 17.632812 0.453125 14.664062 -0.269531 12.0625 -1.71875 C 9.46875 -3.164062 7.457031 -5.238281 6.03125 -7.9375 C 4.601562 -10.644531 3.890625 -13.84375 3.890625 -17.53125 C 3.890625 -21.207031 4.601562 -24.394531 6.03125 -27.09375 C 7.457031 -29.800781 9.46875 -31.878906 12.0625 -33.328125 C 14.664062 -34.773438 17.632812 -35.5 20.96875 -35.5 Z M 36.796875 -17.53125 C 36.796875 -20.851562 36.113281 -23.78125 34.75 -26.3125 C 33.394531 -28.84375 31.515625 -30.8125 29.109375 -32.21875 C 26.710938 -33.625 24 -34.328125 20.96875 -34.328125 C 17.757812 -34.328125 14.976562 -33.65625 12.625 -32.3125 C 10.269531 -30.976562 8.441406 -29.046875 7.140625 -26.515625 C 5.835938 -23.984375 5.1875 -20.988281 5.1875 -17.53125 C 5.1875 -14.0625 5.835938 -11.0625 7.140625 -8.53125 C 8.441406 -6 10.269531 -4.0625 12.625 -2.71875 C 14.976562 -1.382812 17.757812 -0.71875 20.96875 -0.71875 C 24 -0.71875 26.710938 -1.421875 29.109375 -2.828125 C 31.515625 -4.234375 33.394531 -6.203125 34.75 -8.734375 C 36.113281 -11.265625 36.796875 -14.195312 36.796875 -17.53125 Z M 36.796875 -17.53125 "/></g></g></g><g fill="rgb(0%, 0%, 0%)" fill-opacity="1"><g transform="translate(841.096859, 368.193692)"><g><path d="M 20.765625 -0.71875 C 24.703125 -0.71875 28.007812 -1.710938 30.6875 -3.703125 C 33.375 -5.691406 35 -8.414062 35.5625 -11.875 L 36.859375 -11.875 C 36.253906 -8.195312 34.535156 -5.222656 31.703125 -2.953125 C 28.867188 -0.679688 25.222656 0.453125 20.765625 0.453125 C 17.523438 0.453125 14.628906 -0.257812 12.078125 -1.6875 C 9.523438 -3.113281 7.519531 -5.1875 6.0625 -7.90625 C 4.613281 -10.632812 3.890625 -13.84375 3.890625 -17.53125 C 3.890625 -21.207031 4.613281 -24.40625 6.0625 -27.125 C 7.519531 -29.851562 9.523438 -31.929688 12.078125 -33.359375 C 14.628906 -34.785156 17.523438 -35.5 20.765625 -35.5 C 24.179688 -35.5 27.101562 -34.773438 29.53125 -33.328125 C 31.957031 -31.878906 33.785156 -30.007812 35.015625 -27.71875 C 36.242188 -25.425781 36.859375 -23.003906 36.859375 -20.453125 C 36.859375 -18.890625 36.835938 -17.71875 36.796875 -16.9375 L 5.1875 -16.9375 C 5.226562 -13.34375 5.972656 -10.332031 7.421875 -7.90625 C 8.878906 -5.488281 10.773438 -3.6875 13.109375 -2.5 C 15.441406 -1.3125 17.992188 -0.71875 20.765625 -0.71875 Z M 20.765625 -34.328125 C 17.992188 -34.328125 15.441406 -33.734375 13.109375 -32.546875 C 10.773438 -31.359375 8.878906 -29.550781 7.421875 -27.125 C 5.972656 -24.707031 5.226562 -21.703125 5.1875 -18.109375 L 35.703125 -18.109375 C 35.910156 -21.703125 35.332031 -24.707031 33.96875 -27.125 C 32.613281 -29.550781 30.753906 -31.359375 28.390625 -32.546875 C 26.035156 -33.734375 23.492188 -34.328125 20.765625 -34.328125 Z M 20.765625 -34.328125 "/></g></g></g><g fill="rgb(0%, 0%, 0%)" fill-opacity="1"><g transform="translate(881.85317, 368.193692)"><g/></g></g><g fill="rgb(0%, 0%, 0%)" fill-opacity="1"><g transform="translate(900.673789, 368.193692)"><g><path d="M 9.609375 12 L 3.5 12 L 3.5 10.84375 L 8.3125 10.84375 L 8.3125 -59.453125 L 3.5 -59.453125 L 3.5 -60.625 L 9.609375 -60.625 Z M 9.609375 12 "/></g></g></g></svg>